<svg width="36" height="36" viewBox="0 0 36 36" fill="none" xmlns="http://www.w3.org/2000/svg">
<path d="M8 1H28C31.866 1 35 4.13401 35 8V28C35 31.866 31.866 35 28 35H8C4.13401 35 1 31.866 1 28V8C1 4.13401 4.13401 1 8 1Z" fill="#FFE1F2"/>
<path d="M8 1H28C31.866 1 35 4.13401 35 8V28C35 31.866 31.866 35 28 35H8C4.13401 35 1 31.866 1 28V8C1 4.13401 4.13401 1 8 1Z" stroke="url(#paint0_linear_407_1439)" stroke-width="2"/>
<path d="M4 9C4 6.23858 6.23858 4 9 4H27C29.7614 4 32 6.23858 32 9V17H4V9Z" fill="url(#paint1_linear_407_1439)"/>
<path d="M15.9463 7.20312V20H13.3184V7.20312H15.9463ZM21.0334 20H18.4846V9.64648C18.4846 8.92578 18.6252 8.31934 18.9064 7.82715C19.1936 7.3291 19.5949 6.9541 20.1105 6.70215C20.632 6.44434 21.2502 6.31543 21.965 6.31543C22.1994 6.31543 22.425 6.33301 22.6418 6.36816C22.8586 6.39746 23.0695 6.43555 23.2746 6.48242L23.2482 8.38965C23.1369 8.36035 23.0197 8.33984 22.8967 8.32812C22.7736 8.31641 22.6301 8.31055 22.466 8.31055C22.1613 8.31055 21.9006 8.36328 21.6838 8.46875C21.4729 8.56836 21.3117 8.71777 21.2004 8.91699C21.0891 9.11621 21.0334 9.35938 21.0334 9.64648V20ZM22.9318 10.4902V12.2832H17.0695V10.4902H22.9318Z" fill="#FF009C"/>
<path d="M17.7133 23.3125V29H16.6391V23.3125H17.7133ZM19.9469 29H18.9078V24.3828C18.9078 24.0651 18.969 23.7982 19.0914 23.582C19.2138 23.3633 19.3883 23.1979 19.6148 23.0859C19.8414 22.974 20.1083 22.918 20.4156 22.918C20.5172 22.918 20.6135 22.9245 20.7047 22.9375C20.7984 22.9505 20.8909 22.9688 20.982 22.9922L20.9625 23.7773C20.913 23.7643 20.8583 23.7552 20.7984 23.75C20.7411 23.7448 20.6773 23.7422 20.607 23.7422C20.4664 23.7422 20.3466 23.7669 20.2477 23.8164C20.1487 23.8659 20.0732 23.9388 20.0211 24.0352C19.9716 24.1289 19.9469 24.2448 19.9469 24.3828V29ZM20.8023 24.7734V25.5156H18.2711V24.7734H20.8023Z" fill="#FF009C"/>
<defs>
<linearGradient id="paint0_linear_407_1439" x1="18" y1="0" x2="18" y2="36" gradientUnits="userSpaceOnUse">
<stop offset="0.5" stop-color="#FFEFF8"/>
<stop offset="1" stop-color="#FFB3DE"/>
</linearGradient>
<linearGradient id="paint1_linear_407_1439" x1="18" y1="4" x2="18" y2="17" gradientUnits="userSpaceOnUse">
<stop stop-color="white"/>
<stop offset="0.7" stop-color="white" stop-opacity="0.1"/>
</linearGradient>
</defs>
</svg>
