<svg width="36" height="36" viewBox="0 0 36 36" fill="none" xmlns="http://www.w3.org/2000/svg">
<path d="M8 1H28C31.866 1 35 4.13401 35 8V28C35 31.866 31.866 35 28 35H8C4.13401 35 1 31.866 1 28V8C1 4.13401 4.13401 1 8 1Z" fill="#E7E0FF"/>
<path d="M8 1H28C31.866 1 35 4.13401 35 8V28C35 31.866 31.866 35 28 35H8C4.13401 35 1 31.866 1 28V8C1 4.13401 4.13401 1 8 1Z" stroke="url(#paint0_linear_407_1435)" stroke-width="2"/>
<path d="M4 9C4 6.23858 6.23858 4 9 4H27C29.7614 4 32 6.23858 32 9V17H4V9Z" fill="url(#paint1_linear_407_1435)"/>
<path d="M21.7295 17.9434V20H14.918V17.9434H21.7295ZM15.7793 7.20312V20H13.1426V7.20312H15.7793ZM20.8418 12.415V14.4189H14.918V12.415H20.8418ZM21.7207 7.20312V9.26855H14.918V7.20312H21.7207Z" fill="#974DFF"/>
<path d="M12.7984 28.1562V29H9.775V28.1562H12.7984ZM10.1031 23.3125V29H9.02891V23.3125H10.1031ZM12.4039 25.6602V26.4844H9.775V25.6602H12.4039ZM12.7867 23.3125V24.1602H9.775V23.3125H12.7867ZM14.5672 28.2188L15.5516 24.7734H16.6297L15.1805 29H14.5242L14.5672 28.2188ZM13.8484 24.7734L14.8445 28.2266L14.8797 29H14.2195L12.7664 24.7734H13.8484ZM18.8164 29.0781C18.4961 29.0781 18.2083 29.026 17.9531 28.9219C17.6979 28.8177 17.4805 28.6732 17.3008 28.4883C17.1237 28.3008 16.987 28.0833 16.8906 27.8359C16.7969 27.5859 16.75 27.3177 16.75 27.0312V26.875C16.75 26.5495 16.7969 26.2539 16.8906 25.9883C16.9844 25.7201 17.1172 25.4896 17.2891 25.2969C17.4609 25.1042 17.6667 24.9557 17.9062 24.8516C18.1458 24.7474 18.4102 24.6953 18.6992 24.6953C18.9987 24.6953 19.263 24.7461 19.4922 24.8477C19.7214 24.9466 19.9128 25.0872 20.0664 25.2695C20.2201 25.4518 20.3359 25.6706 20.4141 25.9258C20.4922 26.1784 20.5312 26.4583 20.5312 26.7656V27.1992H17.2188V26.4883H19.5156V26.4102C19.5104 26.2461 19.4792 26.0964 19.4219 25.9609C19.3646 25.8229 19.276 25.7135 19.1562 25.6328C19.0365 25.5495 18.8815 25.5078 18.6914 25.5078C18.5378 25.5078 18.4036 25.5417 18.2891 25.6094C18.1771 25.6745 18.0833 25.7682 18.0078 25.8906C17.9349 26.0104 17.8802 26.1536 17.8438 26.3203C17.8073 26.487 17.7891 26.6719 17.7891 26.875V27.0312C17.7891 27.2083 17.8125 27.3724 17.8594 27.5234C17.9089 27.6745 17.9805 27.806 18.0742 27.918C18.1706 28.0273 18.2852 28.1133 18.418 28.1758C18.5534 28.2357 18.707 28.2656 18.8789 28.2656C19.0951 28.2656 19.2904 28.224 19.4648 28.1406C19.6419 28.0547 19.7956 27.9284 19.9258 27.7617L20.4453 28.3008C20.3568 28.431 20.237 28.556 20.0859 28.6758C19.9375 28.7956 19.7578 28.8932 19.5469 28.9688C19.3359 29.0417 19.0924 29.0781 18.8164 29.0781ZM22.0344 25.6758V29H21.0031V24.7734H21.9719L22.0344 25.6758ZM21.8703 26.7344H21.5656C21.5682 26.4271 21.6099 26.1484 21.6906 25.8984C21.7714 25.6484 21.8846 25.4336 22.0305 25.2539C22.1789 25.0742 22.3547 24.9362 22.5578 24.8398C22.7609 24.7435 22.9875 24.6953 23.2375 24.6953C23.4406 24.6953 23.6242 24.724 23.7883 24.7812C23.9523 24.8385 24.093 24.9297 24.2102 25.0547C24.3299 25.1797 24.4211 25.3438 24.4836 25.5469C24.5487 25.7474 24.5812 25.9948 24.5812 26.2891V29H23.5422V26.2812C23.5422 26.0885 23.5135 25.9362 23.4562 25.8242C23.4016 25.7122 23.3208 25.6328 23.2141 25.5859C23.1099 25.5391 22.981 25.5156 22.8273 25.5156C22.6685 25.5156 22.5292 25.5482 22.4094 25.6133C22.2922 25.6758 22.1932 25.763 22.1125 25.875C22.0344 25.987 21.9745 26.1159 21.9328 26.2617C21.8911 26.4076 21.8703 26.5651 21.8703 26.7344ZM27.2914 24.7734V25.5156H24.8695V24.7734H27.2914ZM25.518 23.7344H26.5531V27.7812C26.5531 27.9062 26.5701 28.0026 26.6039 28.0703C26.6378 28.138 26.6885 28.1836 26.7563 28.207C26.824 28.2305 26.9047 28.2422 26.9984 28.2422C27.0661 28.2422 27.1286 28.2383 27.1859 28.2305C27.2432 28.2227 27.2914 28.2148 27.3305 28.207L27.3344 28.9805C27.2484 29.0091 27.1508 29.0326 27.0414 29.0508C26.9346 29.069 26.8135 29.0781 26.6781 29.0781C26.4464 29.0781 26.2432 29.0391 26.0688 28.9609C25.8943 28.8802 25.7589 28.7513 25.6625 28.5742C25.5661 28.3945 25.518 28.1576 25.518 27.8633V23.7344Z" fill="#974DFF"/>
<defs>
<linearGradient id="paint0_linear_407_1435" x1="18" y1="0" x2="18" y2="36" gradientUnits="userSpaceOnUse">
<stop offset="0.5" stop-color="#F0ECFF"/>
<stop offset="1" stop-color="#C0AEFF"/>
</linearGradient>
<linearGradient id="paint1_linear_407_1435" x1="18" y1="4" x2="18" y2="17" gradientUnits="userSpaceOnUse">
<stop stop-color="white"/>
<stop offset="0.7" stop-color="white" stop-opacity="0.1"/>
</linearGradient>
</defs>
</svg>
