<svg width="36" height="36" viewBox="0 0 36 36" fill="none" xmlns="http://www.w3.org/2000/svg">
<path d="M8 1H28C31.866 1 35 4.13401 35 8V28C35 31.866 31.866 35 28 35H8C4.13401 35 1 31.866 1 28V8C1 4.13401 4.13401 1 8 1Z" fill="#CEE7FF"/>
<path d="M8 1H28C31.866 1 35 4.13401 35 8V28C35 31.866 31.866 35 28 35H8C4.13401 35 1 31.866 1 28V8C1 4.13401 4.13401 1 8 1Z" stroke="url(#paint0_linear_407_1431)" stroke-width="2"/>
<path d="M4 9C4 6.23858 6.23858 4 9 4H27C29.7614 4 32 6.23858 32 9V17H4V9Z" fill="url(#paint1_linear_407_1431)"/>
<path d="M18.8643 7.20312V20H16.2363V7.20312H18.8643ZM22.8018 7.20312V9.26855H12.3604V7.20312H22.8018Z" fill="#0081FF"/>
<path d="M9.38047 21.7344V26H8.57773V21.7344H9.38047ZM10.7047 21.7344V22.3701H7.26816V21.7344H10.7047ZM11.6006 23.4775V26H10.8271V22.8301H11.5596L11.6006 23.4775ZM12.5645 22.8096L12.5527 23.5303C12.5098 23.5225 12.4609 23.5166 12.4062 23.5127C12.3535 23.5088 12.3037 23.5068 12.2568 23.5068C12.1377 23.5068 12.0332 23.5234 11.9434 23.5566C11.8535 23.5879 11.7783 23.6338 11.7178 23.6943C11.6592 23.7549 11.6143 23.8291 11.583 23.917C11.5518 24.0029 11.5342 24.1006 11.5303 24.21L11.3633 24.1895C11.3633 23.9883 11.3838 23.8018 11.4248 23.6299C11.4658 23.458 11.5254 23.3076 11.6035 23.1787C11.6816 23.0498 11.7793 22.9502 11.8965 22.8799C12.0156 22.8076 12.1523 22.7715 12.3066 22.7715C12.3496 22.7715 12.3955 22.7754 12.4443 22.7832C12.4951 22.7891 12.5352 22.7979 12.5645 22.8096ZM14.4857 25.3262V23.8643C14.4857 23.7568 14.4672 23.6641 14.4301 23.5859C14.393 23.5078 14.3363 23.4473 14.2602 23.4043C14.184 23.3613 14.0873 23.3398 13.9701 23.3398C13.8666 23.3398 13.7758 23.3574 13.6977 23.3926C13.6215 23.4277 13.5629 23.4775 13.5219 23.542C13.4809 23.6045 13.4604 23.6768 13.4604 23.7588H12.684C12.684 23.6279 12.7152 23.5039 12.7777 23.3867C12.8402 23.2676 12.9291 23.1621 13.0443 23.0703C13.1615 22.9766 13.3012 22.9033 13.4633 22.8506C13.6273 22.7979 13.8109 22.7715 14.0141 22.7715C14.2543 22.7715 14.4682 22.8125 14.6557 22.8945C14.8451 22.9746 14.9936 23.0957 15.101 23.2578C15.2104 23.4199 15.265 23.624 15.265 23.8701V25.2529C15.265 25.4111 15.2748 25.5469 15.2943 25.6602C15.3158 25.7715 15.3471 25.8682 15.3881 25.9502V26H14.6C14.5629 25.9199 14.5346 25.8184 14.515 25.6953C14.4955 25.5703 14.4857 25.4473 14.4857 25.3262ZM14.5941 24.0693L14.6 24.5293H14.1107C13.9896 24.5293 13.8832 24.542 13.7914 24.5674C13.6996 24.5908 13.6244 24.626 13.5658 24.6729C13.5072 24.7178 13.4633 24.7725 13.434 24.8369C13.4047 24.8994 13.39 24.9707 13.39 25.0508C13.39 25.1289 13.4076 25.1992 13.4428 25.2617C13.4799 25.3242 13.5326 25.374 13.601 25.4111C13.6713 25.4463 13.7533 25.4639 13.8471 25.4639C13.9838 25.4639 14.1029 25.4365 14.2045 25.3818C14.3061 25.3252 14.3852 25.2568 14.4418 25.1768C14.4984 25.0967 14.5287 25.0205 14.5326 24.9482L14.7553 25.2822C14.7279 25.3623 14.6869 25.4473 14.6322 25.5371C14.5775 25.627 14.5072 25.7109 14.4213 25.7891C14.3354 25.8672 14.2318 25.9316 14.1107 25.9824C13.9896 26.0332 13.849 26.0586 13.6889 26.0586C13.4838 26.0586 13.3002 26.0176 13.1381 25.9355C12.976 25.8535 12.848 25.7412 12.7543 25.5986C12.6605 25.4561 12.6137 25.2939 12.6137 25.1123C12.6137 24.9443 12.6449 24.7959 12.7074 24.667C12.7699 24.5381 12.8627 24.4297 12.9857 24.3418C13.1088 24.252 13.2611 24.1846 13.4428 24.1396C13.6264 24.0928 13.8363 24.0693 14.0727 24.0693H14.5941ZM16.5711 23.5068V26H15.7977V22.8301H16.5242L16.5711 23.5068ZM16.448 24.3008H16.2195C16.2215 24.0703 16.2527 23.8613 16.3133 23.6738C16.3738 23.4863 16.4588 23.3252 16.5682 23.1904C16.6795 23.0557 16.8113 22.9521 16.9637 22.8799C17.116 22.8076 17.2859 22.7715 17.4734 22.7715C17.6258 22.7715 17.7635 22.793 17.8865 22.8359C18.0096 22.8789 18.115 22.9473 18.2029 23.041C18.2928 23.1348 18.3611 23.2578 18.408 23.4102C18.4568 23.5605 18.4812 23.7461 18.4812 23.9668V26H17.702V23.9609C17.702 23.8164 17.6805 23.7021 17.6375 23.6182C17.5965 23.5342 17.5359 23.4746 17.4559 23.4395C17.3777 23.4043 17.2811 23.3867 17.1658 23.3867C17.0467 23.3867 16.9422 23.4111 16.8523 23.46C16.7645 23.5068 16.6902 23.5723 16.6297 23.6562C16.5711 23.7402 16.5262 23.8369 16.4949 23.9463C16.4637 24.0557 16.448 24.1738 16.448 24.3008ZM20.757 25.1328C20.757 25.0664 20.7395 25.0068 20.7043 24.9541C20.6691 24.9014 20.6027 24.8535 20.5051 24.8105C20.4094 24.7656 20.2687 24.7236 20.0832 24.6846C19.9191 24.6494 19.7678 24.6055 19.6291 24.5527C19.4904 24.5 19.3713 24.4365 19.2717 24.3623C19.1721 24.2861 19.0939 24.1973 19.0373 24.0957C18.9826 23.9922 18.9553 23.873 18.9553 23.7383C18.9553 23.6074 18.9836 23.4844 19.0402 23.3691C19.0969 23.252 19.1789 23.1494 19.2863 23.0615C19.3937 22.9717 19.5246 22.9014 19.6789 22.8506C19.8332 22.7979 20.007 22.7715 20.2004 22.7715C20.4699 22.7715 20.7014 22.8154 20.8947 22.9033C21.09 22.9912 21.2395 23.1123 21.343 23.2666C21.4465 23.4189 21.4982 23.5908 21.4982 23.7822H20.7248C20.7248 23.6982 20.7053 23.6221 20.6662 23.5537C20.6291 23.4854 20.5715 23.4307 20.4934 23.3896C20.4152 23.3467 20.3166 23.3252 20.1975 23.3252C20.09 23.3252 19.9992 23.3428 19.925 23.3779C19.8527 23.4131 19.798 23.459 19.7609 23.5156C19.7238 23.5723 19.7053 23.6348 19.7053 23.7031C19.7053 23.7539 19.715 23.7998 19.7346 23.8408C19.7561 23.8799 19.7902 23.916 19.8371 23.9492C19.884 23.9824 19.9475 24.0127 20.0275 24.04C20.1096 24.0674 20.2102 24.0938 20.3293 24.1191C20.5656 24.166 20.7717 24.2285 20.9475 24.3066C21.1252 24.3828 21.2639 24.4844 21.3635 24.6113C21.4631 24.7383 21.5129 24.9004 21.5129 25.0977C21.5129 25.2383 21.4826 25.3672 21.4221 25.4844C21.3615 25.5996 21.2736 25.7002 21.1584 25.7861C21.0432 25.8721 20.9055 25.9395 20.7453 25.9883C20.5852 26.0352 20.4045 26.0586 20.2033 26.0586C19.9123 26.0586 19.6662 26.0068 19.465 25.9033C19.2639 25.7979 19.1115 25.665 19.008 25.5049C18.9045 25.3428 18.8527 25.1748 18.8527 25.001H19.5939C19.5998 25.124 19.633 25.2227 19.6936 25.2969C19.7541 25.3711 19.8303 25.4248 19.9221 25.458C20.0158 25.4893 20.1145 25.5049 20.218 25.5049C20.3352 25.5049 20.4338 25.4893 20.5139 25.458C20.5939 25.4248 20.6545 25.3809 20.6955 25.3262C20.7365 25.2695 20.757 25.2051 20.757 25.1328ZM23.6979 25.3262V23.8643C23.6979 23.7568 23.6793 23.6641 23.6422 23.5859C23.6051 23.5078 23.5484 23.4473 23.4723 23.4043C23.3961 23.3613 23.2994 23.3398 23.1822 23.3398C23.0787 23.3398 22.9879 23.3574 22.9098 23.3926C22.8336 23.4277 22.775 23.4775 22.734 23.542C22.693 23.6045 22.6725 23.6768 22.6725 23.7588H21.8961C21.8961 23.6279 21.9273 23.5039 21.9898 23.3867C22.0523 23.2676 22.1412 23.1621 22.2564 23.0703C22.3736 22.9766 22.5133 22.9033 22.6754 22.8506C22.8395 22.7979 23.023 22.7715 23.2262 22.7715C23.4664 22.7715 23.6803 22.8125 23.8678 22.8945C24.0572 22.9746 24.2057 23.0957 24.3131 23.2578C24.4225 23.4199 24.4771 23.624 24.4771 23.8701V25.2529C24.4771 25.4111 24.4869 25.5469 24.5064 25.6602C24.5279 25.7715 24.5592 25.8682 24.6002 25.9502V26H23.8121C23.775 25.9199 23.7467 25.8184 23.7271 25.6953C23.7076 25.5703 23.6979 25.4473 23.6979 25.3262ZM23.8062 24.0693L23.8121 24.5293H23.3229C23.2018 24.5293 23.0953 24.542 23.0035 24.5674C22.9117 24.5908 22.8365 24.626 22.7779 24.6729C22.7193 24.7178 22.6754 24.7725 22.6461 24.8369C22.6168 24.8994 22.6021 24.9707 22.6021 25.0508C22.6021 25.1289 22.6197 25.1992 22.6549 25.2617C22.692 25.3242 22.7447 25.374 22.8131 25.4111C22.8834 25.4463 22.9654 25.4639 23.0592 25.4639C23.1959 25.4639 23.315 25.4365 23.4166 25.3818C23.5182 25.3252 23.5973 25.2568 23.6539 25.1768C23.7105 25.0967 23.7408 25.0205 23.7447 24.9482L23.9674 25.2822C23.94 25.3623 23.899 25.4473 23.8443 25.5371C23.7896 25.627 23.7193 25.7109 23.6334 25.7891C23.5475 25.8672 23.4439 25.9316 23.3229 25.9824C23.2018 26.0332 23.0611 26.0586 22.901 26.0586C22.6959 26.0586 22.5123 26.0176 22.3502 25.9355C22.1881 25.8535 22.0602 25.7412 21.9664 25.5986C21.8727 25.4561 21.8258 25.2939 21.8258 25.1123C21.8258 24.9443 21.857 24.7959 21.9195 24.667C21.982 24.5381 22.0748 24.4297 22.1979 24.3418C22.3209 24.252 22.4732 24.1846 22.6549 24.1396C22.8385 24.0928 23.0484 24.0693 23.2848 24.0693H23.8062ZM26.3252 25.4492C26.4346 25.4492 26.5322 25.4277 26.6182 25.3848C26.7041 25.3418 26.7725 25.2812 26.8232 25.2031C26.876 25.125 26.9043 25.0342 26.9082 24.9307H27.6377C27.6338 25.1455 27.5732 25.3379 27.4561 25.5078C27.3389 25.6777 27.1826 25.8125 26.9873 25.9121C26.7939 26.0098 26.5771 26.0586 26.3369 26.0586C26.0928 26.0586 25.8799 26.0176 25.6982 25.9355C25.5166 25.8535 25.3652 25.7393 25.2441 25.5928C25.125 25.4463 25.0352 25.2764 24.9746 25.083C24.916 24.8896 24.8867 24.6826 24.8867 24.4619V24.3682C24.8867 24.1475 24.916 23.9404 24.9746 23.7471C25.0352 23.5537 25.125 23.3838 25.2441 23.2373C25.3652 23.0908 25.5166 22.9766 25.6982 22.8945C25.8799 22.8125 26.0918 22.7715 26.334 22.7715C26.5898 22.7715 26.8145 22.8213 27.0078 22.9209C27.2031 23.0205 27.3555 23.1611 27.4648 23.3428C27.5762 23.5244 27.6338 23.7383 27.6377 23.9844H26.9082C26.9043 23.8711 26.8789 23.7695 26.832 23.6797C26.7852 23.5898 26.7188 23.5176 26.6328 23.4629C26.5469 23.4082 26.4424 23.3809 26.3193 23.3809C26.1885 23.3809 26.0791 23.4082 25.9912 23.4629C25.9053 23.5176 25.8379 23.5928 25.7891 23.6885C25.7422 23.7822 25.709 23.8877 25.6895 24.0049C25.6719 24.1201 25.6631 24.2412 25.6631 24.3682V24.4619C25.6631 24.5908 25.6719 24.7139 25.6895 24.8311C25.709 24.9482 25.7422 25.0537 25.7891 25.1475C25.8379 25.2393 25.9053 25.3125 25.9912 25.3672C26.0791 25.4219 26.1904 25.4492 26.3252 25.4492ZM29.5443 23.8672V24.4795H27.9418V23.8672H29.5443ZM15.4115 28.8301V29.3867H13.5951V28.8301H15.4115ZM14.0814 28.0508H14.8578V31.0859C14.8578 31.1797 14.8705 31.252 14.8959 31.3027C14.9213 31.3535 14.9594 31.3877 15.0102 31.4053C15.0609 31.4229 15.1215 31.4316 15.1918 31.4316C15.2426 31.4316 15.2895 31.4287 15.3324 31.4229C15.3754 31.417 15.4115 31.4111 15.4408 31.4053L15.4437 31.9854C15.3793 32.0068 15.3061 32.0244 15.224 32.0381C15.1439 32.0518 15.0531 32.0586 14.9516 32.0586C14.7777 32.0586 14.6254 32.0293 14.4945 31.9707C14.3637 31.9102 14.2621 31.8135 14.1898 31.6807C14.1176 31.5459 14.0814 31.3682 14.0814 31.1475V28.0508ZM16.5975 28.8301V32H15.8211V28.8301H16.5975ZM15.7684 28.001C15.7684 27.8857 15.8074 27.79 15.8855 27.7139C15.9656 27.6377 16.073 27.5996 16.2078 27.5996C16.3426 27.5996 16.449 27.6377 16.5271 27.7139C16.6072 27.79 16.6473 27.8857 16.6473 28.001C16.6473 28.1143 16.6072 28.209 16.5271 28.2852C16.449 28.3613 16.3426 28.3994 16.2078 28.3994C16.073 28.3994 15.9656 28.3613 15.8855 28.2852C15.8074 28.209 15.7684 28.1143 15.7684 28.001ZM17.048 30.4473V30.3857C17.048 30.1533 17.0813 29.9395 17.1477 29.7441C17.2141 29.5469 17.3107 29.376 17.4377 29.2314C17.5646 29.0869 17.7199 28.9746 17.9035 28.8945C18.0871 28.8125 18.2961 28.7715 18.5305 28.7715C18.7688 28.7715 18.9797 28.8125 19.1633 28.8945C19.3488 28.9746 19.5051 29.0869 19.632 29.2314C19.759 29.376 19.8557 29.5469 19.9221 29.7441C19.9885 29.9395 20.0217 30.1533 20.0217 30.3857V30.4473C20.0217 30.6777 19.9885 30.8916 19.9221 31.0889C19.8557 31.2842 19.759 31.4551 19.632 31.6016C19.5051 31.7461 19.3498 31.8584 19.1662 31.9385C18.9826 32.0186 18.7727 32.0586 18.5363 32.0586C18.302 32.0586 18.092 32.0186 17.9064 31.9385C17.7209 31.8584 17.5646 31.7461 17.4377 31.6016C17.3107 31.4551 17.2141 31.2842 17.1477 31.0889C17.0813 30.8916 17.048 30.6777 17.048 30.4473ZM17.8215 30.3857V30.4473C17.8215 30.5859 17.8352 30.7158 17.8625 30.8369C17.8898 30.958 17.9318 31.0645 17.9885 31.1562C18.0451 31.248 18.1184 31.3203 18.2082 31.373C18.3 31.4238 18.4094 31.4492 18.5363 31.4492C18.6613 31.4492 18.7688 31.4238 18.8586 31.373C18.9484 31.3203 19.0217 31.248 19.0783 31.1562C19.1369 31.0645 19.1799 30.958 19.2072 30.8369C19.2346 30.7158 19.2482 30.5859 19.2482 30.4473V30.3857C19.2482 30.249 19.2346 30.1211 19.2072 30.002C19.1799 29.8809 19.1369 29.7744 19.0783 29.6826C19.0217 29.5889 18.9475 29.5156 18.8557 29.4629C18.7658 29.4082 18.6574 29.3809 18.5305 29.3809C18.4055 29.3809 18.298 29.4082 18.2082 29.4629C18.1184 29.5156 18.0451 29.5889 17.9885 29.6826C17.9318 29.7744 17.8898 29.8809 17.8625 30.002C17.8352 30.1211 17.8215 30.249 17.8215 30.3857ZM21.193 29.5068V32H20.4195V28.8301H21.1461L21.193 29.5068ZM21.0699 30.3008H20.8414C20.8434 30.0703 20.8746 29.8613 20.9352 29.6738C20.9957 29.4863 21.0807 29.3252 21.19 29.1904C21.3014 29.0557 21.4332 28.9521 21.5855 28.8799C21.7379 28.8076 21.9078 28.7715 22.0953 28.7715C22.2477 28.7715 22.3854 28.793 22.5084 28.8359C22.6314 28.8789 22.7369 28.9473 22.8248 29.041C22.9146 29.1348 22.983 29.2578 23.0299 29.4102C23.0787 29.5605 23.1031 29.7461 23.1031 29.9668V32H22.3238V29.9609C22.3238 29.8164 22.3023 29.7021 22.2594 29.6182C22.2184 29.5342 22.1578 29.4746 22.0777 29.4395C21.9996 29.4043 21.9029 29.3867 21.7877 29.3867C21.6686 29.3867 21.5641 29.4111 21.4742 29.46C21.3863 29.5068 21.3121 29.5723 21.2516 29.6562C21.193 29.7402 21.148 29.8369 21.1168 29.9463C21.0855 30.0557 21.0699 30.1738 21.0699 30.3008Z" fill="#0081FF"/>
<defs>
<linearGradient id="paint0_linear_407_1431" x1="18" y1="0" x2="18" y2="36" gradientUnits="userSpaceOnUse">
<stop offset="0.5" stop-color="#DCEEFF"/>
<stop offset="1" stop-color="#9BCDFF"/>
</linearGradient>
<linearGradient id="paint1_linear_407_1431" x1="18" y1="4" x2="18" y2="17" gradientUnits="userSpaceOnUse">
<stop stop-color="white"/>
<stop offset="0.7" stop-color="white" stop-opacity="0.1"/>
</linearGradient>
</defs>
</svg>
