<svg width="36" height="36" viewBox="0 0 36 36" fill="none" xmlns="http://www.w3.org/2000/svg">
<path d="M8 1H28C31.866 1 35 4.13401 35 8V28C35 31.866 31.866 35 28 35H8C4.13401 35 1 31.866 1 28V8C1 4.13401 4.13401 1 8 1Z" fill="#D2DDE3"/>
<path d="M8 1H28C31.866 1 35 4.13401 35 8V28C35 31.866 31.866 35 28 35H8C4.13401 35 1 31.866 1 28V8C1 4.13401 4.13401 1 8 1Z" stroke="url(#paint0_linear_407_1443)" stroke-width="2"/>
<path d="M4 9C4 6.23858 6.23858 4 9 4H27C29.7614 4 32 6.23858 32 9V17H4V9Z" fill="url(#paint1_linear_407_1443)"/>
<path d="M17.7568 17.3281L20.7715 7.20312H23.707L19.251 20H17.3174L17.7568 17.3281ZM14.9795 7.20312L17.9854 17.3281L18.4424 20H16.4912L12.0615 7.20312H14.9795Z" fill="#505050"/>
<path d="M7.01641 27.8867L8.43437 23.3125H9.62578L7.61797 29H6.825L7.01641 27.8867ZM5.70781 23.3125L7.11797 27.8867L7.32109 29H6.52031L4.52031 23.3125H5.70781ZM12.082 28.1016V26.1523C12.082 26.0091 12.0573 25.8854 12.0078 25.7812C11.9583 25.6771 11.8828 25.5964 11.7812 25.5391C11.6797 25.4818 11.5508 25.4531 11.3945 25.4531C11.2565 25.4531 11.1354 25.4766 11.0312 25.5234C10.9297 25.5703 10.8516 25.6367 10.7969 25.7227C10.7422 25.806 10.7148 25.9023 10.7148 26.0117H9.67969C9.67969 25.8372 9.72135 25.6719 9.80469 25.5156C9.88802 25.3568 10.0065 25.2161 10.1602 25.0938C10.3164 24.9688 10.5026 24.8711 10.7188 24.8008C10.9375 24.7305 11.1823 24.6953 11.4531 24.6953C11.7734 24.6953 12.0586 24.75 12.3086 24.8594C12.5612 24.9661 12.7591 25.1276 12.9023 25.3438C13.0482 25.5599 13.1211 25.832 13.1211 26.1602V28.0039C13.1211 28.2148 13.1341 28.3958 13.1602 28.5469C13.1888 28.6953 13.2305 28.8242 13.2852 28.9336V29H12.2344C12.1849 28.8932 12.1471 28.7578 12.1211 28.5938C12.0951 28.4271 12.082 28.263 12.082 28.1016ZM12.2266 26.4258L12.2344 27.0391H11.582C11.4206 27.0391 11.2786 27.056 11.1562 27.0898C11.0339 27.1211 10.9336 27.168 10.8555 27.2305C10.7773 27.2904 10.7188 27.3633 10.6797 27.4492C10.6406 27.5326 10.6211 27.6276 10.6211 27.7344C10.6211 27.8385 10.6445 27.9323 10.6914 28.0156C10.7409 28.099 10.8112 28.1654 10.9023 28.2148C10.9961 28.2617 11.1055 28.2852 11.2305 28.2852C11.4128 28.2852 11.5716 28.2487 11.707 28.1758C11.8424 28.1003 11.9479 28.0091 12.0234 27.9023C12.099 27.7956 12.1393 27.694 12.1445 27.5977L12.4414 28.043C12.4049 28.1497 12.3503 28.263 12.2773 28.3828C12.2044 28.5026 12.1107 28.6146 11.9961 28.7188C11.8815 28.8229 11.7435 28.9089 11.582 28.9766C11.4206 29.0443 11.2331 29.0781 11.0195 29.0781C10.7461 29.0781 10.5013 29.0234 10.2852 28.9141C10.069 28.8047 9.89844 28.6549 9.77344 28.4648C9.64844 28.2747 9.58594 28.0586 9.58594 27.8164C9.58594 27.5924 9.6276 27.3945 9.71094 27.2227C9.79427 27.0508 9.91797 26.9062 10.082 26.7891C10.2461 26.6693 10.4492 26.5794 10.6914 26.5195C10.9362 26.457 11.2161 26.4258 11.5312 26.4258H12.2266ZM14.882 25.6367V29H13.8508V24.7734H14.8273L14.882 25.6367ZM16.1672 24.7461L16.1516 25.707C16.0943 25.6966 16.0292 25.6888 15.9563 25.6836C15.8859 25.6784 15.8195 25.6758 15.757 25.6758C15.5982 25.6758 15.4589 25.6979 15.3391 25.7422C15.2193 25.7839 15.119 25.8451 15.0383 25.9258C14.9602 26.0065 14.9003 26.1055 14.8586 26.2227C14.8169 26.3372 14.7935 26.4674 14.7883 26.6133L14.5656 26.5859C14.5656 26.3177 14.593 26.069 14.6477 25.8398C14.7023 25.6107 14.7818 25.4102 14.8859 25.2383C14.9901 25.0664 15.1203 24.9336 15.2766 24.8398C15.4354 24.7435 15.6177 24.6953 15.8234 24.6953C15.8807 24.6953 15.9419 24.7005 16.007 24.7109C16.0747 24.7188 16.1281 24.7305 16.1672 24.7461ZM17.6273 24.7734V29H16.5922V24.7734H17.6273ZM16.5219 23.668C16.5219 23.5143 16.574 23.3867 16.6781 23.2852C16.7849 23.1836 16.9281 23.1328 17.1078 23.1328C17.2875 23.1328 17.4294 23.1836 17.5336 23.2852C17.6404 23.3867 17.6937 23.5143 17.6937 23.668C17.6937 23.819 17.6404 23.9453 17.5336 24.0469C17.4294 24.1484 17.2875 24.1992 17.1078 24.1992C16.9281 24.1992 16.7849 24.1484 16.6781 24.0469C16.574 23.9453 16.5219 23.819 16.5219 23.668ZM20.7398 28.1016V26.1523C20.7398 26.0091 20.7151 25.8854 20.6656 25.7812C20.6161 25.6771 20.5406 25.5964 20.4391 25.5391C20.3375 25.4818 20.2086 25.4531 20.0523 25.4531C19.9143 25.4531 19.7932 25.4766 19.6891 25.5234C19.5875 25.5703 19.5094 25.6367 19.4547 25.7227C19.4 25.806 19.3727 25.9023 19.3727 26.0117H18.3375C18.3375 25.8372 18.3792 25.6719 18.4625 25.5156C18.5458 25.3568 18.6643 25.2161 18.818 25.0938C18.9742 24.9688 19.1604 24.8711 19.3766 24.8008C19.5953 24.7305 19.8401 24.6953 20.1109 24.6953C20.4312 24.6953 20.7164 24.75 20.9664 24.8594C21.219 24.9661 21.4169 25.1276 21.5602 25.3438C21.706 25.5599 21.7789 25.832 21.7789 26.1602V28.0039C21.7789 28.2148 21.7919 28.3958 21.818 28.5469C21.8466 28.6953 21.8883 28.8242 21.943 28.9336V29H20.8922C20.8427 28.8932 20.8049 28.7578 20.7789 28.5938C20.7529 28.4271 20.7398 28.263 20.7398 28.1016ZM20.8844 26.4258L20.8922 27.0391H20.2398C20.0784 27.0391 19.9365 27.056 19.8141 27.0898C19.6917 27.1211 19.5914 27.168 19.5133 27.2305C19.4352 27.2904 19.3766 27.3633 19.3375 27.4492C19.2984 27.5326 19.2789 27.6276 19.2789 27.7344C19.2789 27.8385 19.3023 27.9323 19.3492 28.0156C19.3987 28.099 19.469 28.1654 19.5602 28.2148C19.6539 28.2617 19.7633 28.2852 19.8883 28.2852C20.0706 28.2852 20.2294 28.2487 20.3648 28.1758C20.5003 28.1003 20.6057 28.0091 20.6812 27.9023C20.7568 27.7956 20.7971 27.694 20.8023 27.5977L21.0992 28.043C21.0628 28.1497 21.0081 28.263 20.9352 28.3828C20.8622 28.5026 20.7685 28.6146 20.6539 28.7188C20.5393 28.8229 20.4013 28.9089 20.2398 28.9766C20.0784 29.0443 19.8909 29.0781 19.6773 29.0781C19.4039 29.0781 19.1591 29.0234 18.943 28.9141C18.7268 28.8047 18.5562 28.6549 18.4312 28.4648C18.3062 28.2747 18.2437 28.0586 18.2437 27.8164C18.2437 27.5924 18.2854 27.3945 18.3687 27.2227C18.4521 27.0508 18.5758 26.9062 18.7398 26.7891C18.9039 26.6693 19.107 26.5794 19.3492 26.5195C19.594 26.457 19.874 26.4258 20.1891 26.4258H20.8844ZM22.5047 23H23.5398V28.0664L23.4383 29H22.5047V23ZM26.2586 26.8438V26.9258C26.2586 27.2409 26.2234 27.5299 26.1531 27.793C26.0854 28.056 25.9826 28.2839 25.8445 28.4766C25.7065 28.6667 25.5346 28.8151 25.3289 28.9219C25.1258 29.026 24.8875 29.0781 24.6141 29.0781C24.3536 29.0781 24.1271 29.0273 23.9344 28.9258C23.7443 28.8242 23.5841 28.681 23.4539 28.4961C23.3237 28.3086 23.2195 28.0885 23.1414 27.8359C23.0633 27.5807 23.0047 27.3021 22.9656 27V26.7773C23.0047 26.4727 23.0633 26.194 23.1414 25.9414C23.2195 25.6888 23.3237 25.4688 23.4539 25.2812C23.5841 25.0938 23.7443 24.9492 23.9344 24.8477C24.1245 24.7461 24.3484 24.6953 24.6063 24.6953C24.8823 24.6953 25.1232 24.7487 25.3289 24.8555C25.5372 24.9596 25.7091 25.1081 25.8445 25.3008C25.9826 25.4909 26.0854 25.7174 26.1531 25.9805C26.2234 26.2409 26.2586 26.5286 26.2586 26.8438ZM25.2234 26.9258V26.8438C25.2234 26.6641 25.2091 26.4948 25.1805 26.3359C25.1518 26.1745 25.1049 26.0326 25.0398 25.9102C24.9747 25.7878 24.8862 25.6914 24.7742 25.6211C24.6622 25.5508 24.5216 25.5156 24.3523 25.5156C24.1909 25.5156 24.0529 25.543 23.9383 25.5977C23.8263 25.6523 23.7326 25.7279 23.657 25.8242C23.5841 25.9206 23.5268 26.0339 23.4852 26.1641C23.4461 26.2943 23.4201 26.4349 23.407 26.5859V27.1953C23.4253 27.3958 23.4682 27.5768 23.5359 27.7383C23.6036 27.8971 23.7039 28.0234 23.8367 28.1172C23.9721 28.2109 24.1466 28.2578 24.3602 28.2578C24.5268 28.2578 24.6661 28.2253 24.7781 28.1602C24.8901 28.0924 24.9786 27.9987 25.0438 27.8789C25.1089 27.7565 25.1544 27.6146 25.1805 27.4531C25.2091 27.2917 25.2234 27.1159 25.2234 26.9258ZM27.9023 23V29H26.8672V23H27.9023ZM30.5852 29.0781C30.2648 29.0781 29.9771 29.026 29.7219 28.9219C29.4667 28.8177 29.2492 28.6732 29.0695 28.4883C28.8924 28.3008 28.7557 28.0833 28.6594 27.8359C28.5656 27.5859 28.5187 27.3177 28.5187 27.0312V26.875C28.5187 26.5495 28.5656 26.2539 28.6594 25.9883C28.7531 25.7201 28.8859 25.4896 29.0578 25.2969C29.2297 25.1042 29.4354 24.9557 29.675 24.8516C29.9146 24.7474 30.1789 24.6953 30.468 24.6953C30.7674 24.6953 31.0318 24.7461 31.2609 24.8477C31.4901 24.9466 31.6815 25.0872 31.8352 25.2695C31.9888 25.4518 32.1047 25.6706 32.1828 25.9258C32.2609 26.1784 32.3 26.4583 32.3 26.7656V27.1992H28.9875V26.4883H31.2844V26.4102C31.2792 26.2461 31.2479 26.0964 31.1906 25.9609C31.1333 25.8229 31.0448 25.7135 30.925 25.6328C30.8052 25.5495 30.6503 25.5078 30.4602 25.5078C30.3065 25.5078 30.1724 25.5417 30.0578 25.6094C29.9458 25.6745 29.8521 25.7682 29.7766 25.8906C29.7036 26.0104 29.649 26.1536 29.6125 26.3203C29.576 26.487 29.5578 26.6719 29.5578 26.875V27.0312C29.5578 27.2083 29.5812 27.3724 29.6281 27.5234C29.6776 27.6745 29.7492 27.806 29.843 27.918C29.9393 28.0273 30.0539 28.1133 30.1867 28.1758C30.3221 28.2357 30.4758 28.2656 30.6477 28.2656C30.8638 28.2656 31.0591 28.224 31.2336 28.1406C31.4107 28.0547 31.5643 27.9284 31.6945 27.7617L32.2141 28.3008C32.1255 28.431 32.0057 28.556 31.8547 28.6758C31.7062 28.7956 31.5266 28.8932 31.3156 28.9688C31.1047 29.0417 30.8612 29.0781 30.5852 29.0781Z" fill="#505050"/>
<defs>
<linearGradient id="paint0_linear_407_1443" x1="18" y1="0" x2="18" y2="36" gradientUnits="userSpaceOnUse">
<stop offset="0.5" stop-color="#DAE7EE"/>
<stop offset="1" stop-color="#C3CBCF"/>
</linearGradient>
<linearGradient id="paint1_linear_407_1443" x1="18" y1="4" x2="18" y2="17" gradientUnits="userSpaceOnUse">
<stop stop-color="white"/>
<stop offset="0.7" stop-color="white" stop-opacity="0.1"/>
</linearGradient>
</defs>
</svg>
